<svg xmlns="http://www.w3.org/2000/svg" viewBox="0 0 2208.14 1006.54"><defs><style>.cls-1{fill:#b8d5dc;}.cls-2{fill:#5ca2b9;}.cls-3{fill:#73b3ce;}.cls-4{fill:#91d4ea;}.cls-5{fill:#ffb27d;}.cls-6{fill:#331832;}.cls-7{fill:#366f90;}.cls-8{fill:#ef8062;}.cls-9{fill:#ff9d89;}.cls-10{fill:#d56853;}.cls-11{fill:#58a1c7;}.cls-12{fill:#5c305d;}.cls-13{fill:#080435;}.cls-14{fill:#fff;}.cls-15{fill:#82cde4;}.cls-16{fill:#267795;}</style></defs><g id="Layer_2" data-name="Layer 2"><g id="_Layer_" data-name="&lt;Layer&gt;"><ellipse class="cls-1" cx="1104.07" cy="881.28" rx="1104.07" ry="125.26"/><ellipse class="cls-2" cx="816.13" cy="841.31" rx="227.82" ry="13.9"/><ellipse class="cls-2" cx="1699.74" cy="902.64" rx="227.82" ry="21.36"/><polygon class="cls-2" points="521.74 592.17 410.58 492.26 693.43 0 804.65 88.58 521.74 592.17"/><polygon class="cls-3" points="1043.7 842.39 521.74 592.17 804.65 88.58 1324.38 342.77 1043.7 842.39"/><polygon class="cls-4" points="693.43 0 704.68 5.3 1164.11 221.62 1324.38 342.77 804.65 88.58 693.43 0"/><path class="cls-5" d="M480.29,574.43s6.46,18.86,24.83,26.16,40.28-2,39.87-8.11-43.4-28-43.4-28Z"/><path class="cls-6" d="M346.87,797.59s.66,12.72,9.37,16.08S390,819.59,380.9,828c-5.23,4.84-30.53,2.49-37.65,2.68s-13.73,3.48-19.15-1.15c-6-5.08-.84-31.34-.84-31.34s6.23,3,11.75,2.75C343,800.55,346.87,797.59,346.87,797.59Z"/><path class="cls-7" d="M362.26,485.9c-1.67,26.41,71.66,105.11,71.71,159,.08,78.31-60.49,172.12-85.79,169.83-18.1-1.63-34.75-6.74-34.07-21.9,0,0,35.87-102.87,37.93-134.26,4.14-63.37-126.47-72-121.29-143.6C232.74,487.52,365,442.56,362.26,485.9Z"/><path class="cls-6" d="M191.85,791.2s-10.45,7.29-8.7,16.46,12.8,31.79.83,28.52c-6.87-1.88-18.24-24.61-22.17-30.55s-10.2-9.82-9.14-16.86c1.17-7.75,26.16-17.28,26.16-17.28s.72,6.9,3.88,11.43C187.28,789.45,191.85,791.2,191.85,791.2Z"/><path class="cls-7" d="M295.6,474.65c-1.66,26.41-3,104.92-5.21,158.8C286,742.25,211.28,811.11,173.15,793.26,144.91,780.05,207.61,705.4,209.66,674c2.22-34-1.76-82.88-2-121.45-.3-43.84.39-99.23,35.07-115.64C267.44,425.21,296.88,454.45,295.6,474.65Z"/><path class="cls-5" d="M417,309.56l14.48-10.88,4.22-3.17,24.77-18.62-15.55,24.8-9.34,14.89-3,4.71c-2,3.2-.42,5.26.2,9.67.25,1.79,2.11,12.85-7.26,10.81-11.66-2.55-24.76-19.93-26.11-31.79C399.51,310,412.34,313.08,417,309.56Z"/><ellipse class="cls-5" cx="434.21" cy="276.68" rx="28.08" ry="31.57" transform="translate(-69.15 168.44) rotate(-20.37)"/><path class="cls-6" d="M448.33,263.57c16-1.73,22.51-11.37,21.56-19.3-1.21-10.16-9.37-18.15-16.83-13.24s-5.35-4.82-13.18-4.69c-14.64.22-16,10.1-27.67,12.25-15.43,2.83-29.69,29.38-14.17,45C398,283.63,435.69,264.93,448.33,263.57Z"/><path class="cls-6" d="M461.05,251.32S446.21,269,449.69,277.21s3.38,11.67-5.91,17.66.56,12.15-12.61,14.59-31.48-9.78-34.89-33.68a34.81,34.81,0,0,1,5.08-23.21Z"/><path class="cls-5" d="M458.22,275.6a6.1,6.1,0,0,0-8.16-.57c-2.22,2-2.15,5.37.14,7.63a6.09,6.09,0,0,0,8.16.57C460.58,281.28,460.51,277.86,458.22,275.6Z"/><path class="cls-6" d="M392.54,291.14h0a.4.4,0,0,1-.36-.44c.34-3.69,3.57-6.13,3.71-6.25a.44.44,0,0,1,.56.09.42.42,0,0,1-.08.57s-3.08,2.34-3.39,5.67A.39.39,0,0,1,392.54,291.14Z"/><path class="cls-6" d="M395.32,283.34c-1.33,0-4.71-.29-5.74-3.2a.4.4,0,0,1,.24-.52.4.4,0,0,1,.51.24c1.06,3,5.4,2.65,5.46,2.67h0a.4.4,0,0,1,0,.8Z"/><path class="cls-6" d="M450.17,230.81a2.72,2.72,0,0,1-1.2-.29c-2.24-1.1-3.25-5.05-3.29-5.21a.4.4,0,0,1,.29-.49.4.4,0,0,1,.48.29s1,3.76,2.87,4.69a2,2,0,0,0,1.76,0,10.58,10.58,0,0,0,2.83-2c1.61-1.39,3.27-2.83,7.12-2.26a.4.4,0,0,1,.34.46.41.41,0,0,1-.4.34h-.06c-3.47-.54-4.87.67-6.48,2.06a11.39,11.39,0,0,1-3,2.08A3,3,0,0,1,450.17,230.81Z"/><path class="cls-6" d="M454.46,284.87c-1.38,0-3.36-.55-5.2-3a.18.18,0,0,1,0-.27.19.19,0,0,1,.27,0c3.09,4.17,6.4,2.65,6.54,2.58a.21.21,0,0,1,.26.09.2.2,0,0,1-.1.26A4.73,4.73,0,0,1,454.46,284.87Z"/><path class="cls-8" d="M336.07,311.37s43.51-20.07,85.4,4.66c94.3,55.66-19.83,40.81-42.51,203.14,0,0-57.77,38.53-160.92-55.72C218,463.45,249.59,352.51,336.07,311.37Z"/><path class="cls-8" d="M431.7,323.72s28.62,20.38,36.11,55.51-5,58.37,4.25,91.88c6.78,24.69-53.36,57-66.15,40.91-14.25-17.91-17.9-67.19-17.9-67.19Z"/><path class="cls-8" d="M486.13,584.89c-15.56,2.44-94.46-63.49-91.55-111.89,3.11-51.45,77.48-1.89,77.48-1.89l33.06,96.81S501.89,582.42,486.13,584.89Z"/><path class="cls-6" d="M392.06,476c-3.4-21.22,3.2-54.51,3.27-54.85l.75.15c-.06.34-6.64,33.5-3.26,54.57Z"/><path class="cls-6" d="M291.58,591c-20.39-11.7-46.39-50.48-46.65-50.87l1-.67c.26.39,26.11,38.93,46.24,50.49Z"/><circle class="cls-8" cx="1872.41" cy="578.18" r="335.73"/><path class="cls-9" d="M2136.51,468.35s-26.78-114.77-126.25-139.64,7.65,80.34,38.26,128.16S2152.61,511,2136.51,468.35Z"/><path class="cls-10" d="M1618.14,646.24S1643,806.92,1792.2,839.43s208.5-24.86,189.37-66.94-133.9-24.87-231.45-112.86S1610.48,592.68,1618.14,646.24Z"/><path class="cls-5" d="M1592.77,452.5s19.53-12,26.74-28.29c7.44-16.8,13.09-19.43,10.6-9-4.36,18.27-.91,17,1.19,11.57s8-20.44,12-16.64c3.19,3.05-9.86,27.63-5.56,23.35s13.48-29.45,17.49-21.91c2.29,4.3-14.26,27.11-8.07,24.79s14.53-15,18-12.28S1645,447.5,1651.44,451s19-3.49,16,1.94-20.32,8.83-26.51,12.06-27.72,13.72-27.72,13.72Z"/><path class="cls-6" d="M1378.14,890s-15,12.52-6.06,16.09c13.52,5.4,32.61,11.82,20.49,16.3-7,2.57-32.28.4-41.66-1.7-7.25-1.63-14.71-1.86-18.22-8.19-3.86-7,29.88-45.82,29.88-45.82s12.54.26,18,2C1388.53,871.3,1378.14,890,1378.14,890Z"/><path class="cls-6" d="M1067.88,638.83s-22.13-3.44-30.38,1.49S1011,664,1010.39,651.1c-.33-7.4,17.94-26.52,22.43-32.45s6.25-13.45,13.34-14.87c7.8-1.56,35.5,17.6,35.5,17.6s4,6.86.6,11.55C1077.4,639.7,1067.88,638.83,1067.88,638.83Z"/><path class="cls-11" d="M1445.14,452.06c5.9,13.85,35.48,46.84,80.44,55.13,50.59,9.32,83.77-29.48,84.15-30.26,5-10.27,0-38.48,0-38.48-31.88,5-47.18,3-61.67-1.4-29.83-9.1-35.81-39.21-72.5-63.78l-13.83,33.25C1464.9,439.61,1413,433.45,1445.14,452.06Z"/><path class="cls-6" d="M1305.06,538.8c-2.3,6.21,35.5,24.26,84.06,42.15s89.44,27,91.75,20.76-34.84-25.35-83.4-43.24S1307.37,532.6,1305.06,538.8Z"/><path class="cls-11" d="M1384,390.88c16-16,46.38-44.74,86.91-25.06,51.59,25.06,50.14,111.89,9.92,235.89,0,0-45.92-43.9-175.81-62.91C1305.06,538.8,1343.78,431.31,1384,390.88Z"/><path class="cls-5" d="M1470.29,359.23l10.18-14,3-4.07,17.43-23.95-7.58,27.07-4.55,16.25-1.44,5.14c-1,3.5-1.43,7.15.25,11,.69,1.57,2.51,10.12-6.42,10.75-7.18.51-22.22-12.47-26.48-23C1454.71,364.48,1467,363.75,1470.29,359.23Z"/><path class="cls-6" d="M1488.74,360.54s-8.31-6.33-10.28-13l12.54,5Z"/><path class="cls-12" d="M1519.5,303.78a35.59,35.59,0,0,1-.29,15.39c-2,8.53-10.73-12.75-10.73-12.75Z"/><ellipse class="cls-5" cx="1494.21" cy="324.3" rx="26.15" ry="30.31" transform="translate(-33.05 251.41) rotate(-9.51)"/><path class="cls-6" d="M1467.68,318.26l12.71-.95a9.23,9.23,0,0,0,6.92-3.81c2.67-3.83,5.83-5.75,17.65-5,15,.91,25-7.4,26.78-14.87s-5.77-13-13.36-9.53-4.2-5.41-11.41-6.53c-13.49-2.11-16.21,7.81-27.27,7.21-14.51-.78-40.7,9.15-28.83,33.91Z"/><path class="cls-13" d="M1495.61,323.07a.48.48,0,0,0,.25-.38.52.52,0,0,0-.47-.56,5.8,5.8,0,0,0-6.18,3.18.5.5,0,0,0,.22.69.59.59,0,0,0,.72-.21,9.13,9.13,0,0,1,5.13-2.65A.62.62,0,0,0,1495.61,323.07Z"/><path class="cls-13" d="M1493.19,329.54c.31,1.18,1.28,2,2.17,1.75a1.93,1.93,0,0,0,1.05-2.51c-.31-1.18-1.28-2-2.17-1.76A1.92,1.92,0,0,0,1493.19,329.54Z"/><path class="cls-13" d="M1515.28,322a.38.38,0,0,0,.3-.25.6.6,0,0,0-.2-.69,3.83,3.83,0,0,0-5.42.46.58.58,0,0,0,0,.71.41.41,0,0,0,.59.09,5.75,5.75,0,0,1,4.5-.39A.38.38,0,0,0,1515.28,322Z"/><path class="cls-13" d="M1510.34,327.13a2,2,0,0,0,1.33,2.41c.91.14,1.79-.73,2-1.93a2,2,0,0,0-1.32-2.41C1511.41,325.07,1510.52,325.93,1510.34,327.13Z"/><path class="cls-12" d="M1450.87,318.65s8.42,18.31,20.81,19.94c0,0-6.65-16,11.54-21.92C1483.22,316.67,1463.84,313.27,1450.87,318.65Z"/><path class="cls-5" d="M1468.59,329.68c2,3.09,5.53,4.45,7.92,3.05s2.73-5,.74-8.12-5.53-4.45-7.92-3.05S1466.6,326.6,1468.59,329.68Z"/><path class="cls-14" d="M1512.4,338.72a55.78,55.78,0,0,1-17.11.87s1.16,8,10.22,6.59C1510.78,345.39,1512.4,338.72,1512.4,338.72Z"/><path class="cls-6" d="M1517,282.84c-4.09,0-4.38-3.35-4.39-3.39l.71-.05c0,.11.26,2.74,3.68,2.74h0v.7Z"/><path class="cls-14" d="M1509.28,304.56l-.09-.35c.17,0,16.19-4.18,17-12,.23-2.17-.11-3.64-1-4.48-1.53-1.41-4.46-.81-7.06-.32l-1.14.22-.06-.35,1.14-.21c2.66-.53,5.69-1.12,7.35.4,1,.93,1.4,2.49,1.16,4.77C1525.7,300.31,1510,304.38,1509.28,304.56Z"/><path class="cls-14" d="M1479,287.86a37.86,37.86,0,0,1-5.61-.44l0-.35a35.94,35.94,0,0,0,5.56.44c11.8,0,17.63-6.25,17.69-6.31l.26.23C1496.92,281.5,1491,287.86,1479,287.86Z"/><path class="cls-8" d="M1479.6,383.3s-35.55,72.73-115.8,80.13c-21.92,2-51.23,3.35-64.65,6.66-11.32,2.79-40.16,27.25-39.86,30.7.47,5.37,37.18,27.65,48,27.22,34.39-1.37,91.29-.69,139.7-46.89,39.7-37.89,44-97,44-97Z"/><path class="cls-8" d="M1475.51,373.27s13.59,1.23,15.67,5.36-5.5,16.12-11.55,15S1468.73,374.17,1475.51,373.27Z"/><path class="cls-6" d="M1480.69,394.16a3.15,3.15,0,0,1-1.17-.22c-3.61-1.39-5.44-5.73-5.51-5.92l.56-.22s1.81,4.28,5.18,5.57a2.55,2.55,0,0,0,1,.17c3.15,0,7-5,7-5l.49.37C1488.07,389.15,1484.16,394.16,1480.69,394.16Z"/><path class="cls-15" d="M1483.86,373.08s-10.36-10.36-11.25-17-25.24.15-26.47,4,19.52,34.25,22.51,32.4S1486.29,378.2,1483.86,373.08Z"/><path class="cls-15" d="M1483.86,373.08a46.47,46.47,0,0,0,3.83-8.8s1.28-2.54,3.62-1.38,11.86,15.34,11.93,18.53-4.88,16-9.5,15.25-9.34-18.59-10-20.43A4,4,0,0,1,1483.86,373.08Z"/><path class="cls-6" d="M1430.35,530.92a4.56,4.56,0,1,1,2.6,5.75A4.46,4.46,0,0,1,1430.35,530.92Z"/><path class="cls-6" d="M1449.61,483.08a4.57,4.57,0,1,1,2.6,5.75A4.46,4.46,0,0,1,1449.61,483.08Z"/><path class="cls-8" d="M1482.77,746.48c-1.27-61.62-10.09-97-16.62-123.54-8.68-35.31-10.38-33.29-18-36.51-13.7-5.79-111.57-12.12-111.57-12.12l61.75,163.4c3.48,10.31,10.16,28.08,4,37.73-29.82,46.78-64,93.46-53.1,104.8,8.53,8.88,21.28,21.4,34.8,14.63s54.31-49.67,67.65-67.1C1483.15,786.67,1482.77,746.48,1482.77,746.48Z"/><path class="cls-8" d="M1453.1,588.62c-35.28-20.38-141.55-43.47-141.55-43.47L1229.93,620h0s-14.55,13.35-22.54,11.79c-50.47-9.89-132.76-23.89-140.61-13.48-7.41,9.83-17.07,27.06-9.1,35.55,10.34,11,44,23.68,65,29.94,79.27,23.56,122.39,20.24,122.39,20.24,62.73-1.62,130.66-75,136.56-80.82A9.09,9.09,0,0,0,1382.8,612C1377.68,603.6,1453.1,588.62,1453.1,588.62Z"/><path class="cls-6" d="M1362.23,642.84a.66.66,0,0,1-.4-.13.67.67,0,0,1-.13-.94c21.15-28.39,43.59-42.22,43.81-42.36a.64.64,0,0,1,.92.22.66.66,0,0,1-.23.91c-.22.14-22.45,13.86-43.44,42A.65.65,0,0,1,1362.23,642.84Z"/><path class="cls-5" d="M1691.63,491.64c-2.19-3.83-14.77,4.61-21.37,4.36s17.47-14.89,17-19.74c-.79-8.51-19,11.16-24.6,13.45s15.91-15.35,14.15-19.4c-2.19-5-13.45,6.59-17.47,10.74s-7.71,4,3.37-11.14c6.32-8.66.09-8.42-13.26,4.21-.84.8-1.74,1.57-2.66,2.3a64.44,64.44,0,0,0-.42-9.59c-.72-5-5,1.61-7.18,7.17s-9.16,11.45-9.2,11.47a91.52,91.52,0,0,1-16.13,4.42l8.75,32.09a58.14,58.14,0,0,0,30.87-2C1662.4,516.92,1693.82,495.47,1691.63,491.64Z"/><path class="cls-11" d="M1449.31,388.35s45.52,90.85,171,81.51c0,0,16.41,34.46-3.85,54.44,0,0-81.35,16.67-153-20.56s-82.35-61.38-82.35-61.38Z"/><path class="cls-16" d="M1507.88,521C1454,510.43,1392,456.61,1391.41,456.05l.71-.8c.61.54,62.36,54.18,116,64.68Z"/><path class="cls-16" d="M1604.47,470.9c-51.86,0-88.59-16.4-111-30.92-26.65-17.3-39.19-35.76-39.31-36l.89-.6c.12.19,12.58,18.49,39.05,35.68,24.43,15.84,66.1,34,126.12,30.21l.07,1.08Q1612.18,470.91,1604.47,470.9Z"/></g></g></svg>